<mxfile host="65bd71144e">
    <diagram id="GC3d5SEIMlqQDpdu6AJr" name="Page-1">
        <mxGraphModel dx="722" dy="433" grid="1" gridSize="10" guides="1" tooltips="1" connect="1" arrows="1" fold="1" page="1" pageScale="1" pageWidth="850" pageHeight="1100" math="0" shadow="0">
            <root>
                <mxCell id="0"/>
                <mxCell id="1" parent="0"/>
                <mxCell id="wi9Bhf0zNv-aggHsFR5M-1" value="" style="whiteSpace=wrap;html=1;aspect=fixed;" parent="1" vertex="1">
                    <mxGeometry x="220" y="30" width="50" height="50" as="geometry"/>
                </mxCell>
                <mxCell id="wi9Bhf0zNv-aggHsFR5M-2" value="" style="whiteSpace=wrap;html=1;aspect=fixed;" parent="1" vertex="1">
                    <mxGeometry x="272" y="30" width="50" height="50" as="geometry"/>
                </mxCell>
                <mxCell id="wi9Bhf0zNv-aggHsFR5M-3" value="" style="whiteSpace=wrap;html=1;aspect=fixed;" parent="1" vertex="1">
                    <mxGeometry x="324" y="30" width="50" height="50" as="geometry"/>
                </mxCell>
                <mxCell id="wi9Bhf0zNv-aggHsFR5M-4" value="" style="whiteSpace=wrap;html=1;aspect=fixed;fillColor=#B3B3B3;" parent="1" vertex="1">
                    <mxGeometry x="376" y="30" width="50" height="50" as="geometry"/>
                </mxCell>
                <mxCell id="wi9Bhf0zNv-aggHsFR5M-5" value="" style="whiteSpace=wrap;html=1;aspect=fixed;" parent="1" vertex="1">
                    <mxGeometry x="220" y="82" width="50" height="50" as="geometry"/>
                </mxCell>
                <mxCell id="wi9Bhf0zNv-aggHsFR5M-6" value="" style="whiteSpace=wrap;html=1;aspect=fixed;" parent="1" vertex="1">
                    <mxGeometry x="272" y="82" width="50" height="50" as="geometry"/>
                </mxCell>
                <mxCell id="wi9Bhf0zNv-aggHsFR5M-7" value="" style="whiteSpace=wrap;html=1;aspect=fixed;fillColor=#B3B3B3;" parent="1" vertex="1">
                    <mxGeometry x="324" y="82" width="50" height="50" as="geometry"/>
                </mxCell>
                <mxCell id="wi9Bhf0zNv-aggHsFR5M-8" value="" style="whiteSpace=wrap;html=1;aspect=fixed;fillColor=#B3B3B3;" parent="1" vertex="1">
                    <mxGeometry x="376" y="82" width="50" height="50" as="geometry"/>
                </mxCell>
                <mxCell id="wi9Bhf0zNv-aggHsFR5M-9" value="" style="whiteSpace=wrap;html=1;aspect=fixed;" parent="1" vertex="1">
                    <mxGeometry x="220" y="134" width="50" height="50" as="geometry"/>
                </mxCell>
                <mxCell id="wi9Bhf0zNv-aggHsFR5M-10" value="" style="whiteSpace=wrap;html=1;aspect=fixed;" parent="1" vertex="1">
                    <mxGeometry x="272" y="134" width="50" height="50" as="geometry"/>
                </mxCell>
                <mxCell id="wi9Bhf0zNv-aggHsFR5M-11" value="" style="whiteSpace=wrap;html=1;aspect=fixed;" parent="1" vertex="1">
                    <mxGeometry x="324" y="134" width="50" height="50" as="geometry"/>
                </mxCell>
                <mxCell id="wi9Bhf0zNv-aggHsFR5M-12" value="" style="whiteSpace=wrap;html=1;aspect=fixed;fillColor=#B3B3B3;" parent="1" vertex="1">
                    <mxGeometry x="376" y="134" width="50" height="50" as="geometry"/>
                </mxCell>
                <mxCell id="CsA70eIJGZtUb_FbTeEb-2" value="" style="whiteSpace=wrap;html=1;aspect=fixed;fillColor=#B3B3B3;" parent="1" vertex="1">
                    <mxGeometry x="428" y="30" width="50" height="50" as="geometry"/>
                </mxCell>
                <mxCell id="CsA70eIJGZtUb_FbTeEb-3" value="" style="whiteSpace=wrap;html=1;aspect=fixed;" parent="1" vertex="1">
                    <mxGeometry x="428" y="82" width="50" height="50" as="geometry"/>
                </mxCell>
                <mxCell id="CsA70eIJGZtUb_FbTeEb-4" value="" style="whiteSpace=wrap;html=1;aspect=fixed;" parent="1" vertex="1">
                    <mxGeometry x="428" y="134" width="50" height="50" as="geometry"/>
                </mxCell>
                <mxCell id="CsA70eIJGZtUb_FbTeEb-5" value="" style="whiteSpace=wrap;html=1;aspect=fixed;" parent="1" vertex="1">
                    <mxGeometry x="480" y="30" width="50" height="50" as="geometry"/>
                </mxCell>
                <mxCell id="CsA70eIJGZtUb_FbTeEb-6" value="" style="whiteSpace=wrap;html=1;aspect=fixed;" parent="1" vertex="1">
                    <mxGeometry x="480" y="82" width="50" height="50" as="geometry"/>
                </mxCell>
                <mxCell id="CsA70eIJGZtUb_FbTeEb-7" value="" style="whiteSpace=wrap;html=1;aspect=fixed;" parent="1" vertex="1">
                    <mxGeometry x="480" y="134" width="50" height="50" as="geometry"/>
                </mxCell>
                <mxCell id="CsA70eIJGZtUb_FbTeEb-8" value="" style="whiteSpace=wrap;html=1;aspect=fixed;" parent="1" vertex="1">
                    <mxGeometry x="532" y="30" width="50" height="50" as="geometry"/>
                </mxCell>
                <mxCell id="CsA70eIJGZtUb_FbTeEb-9" value="" style="whiteSpace=wrap;html=1;aspect=fixed;" parent="1" vertex="1">
                    <mxGeometry x="532" y="82" width="50" height="50" as="geometry"/>
                </mxCell>
                <mxCell id="CsA70eIJGZtUb_FbTeEb-10" value="" style="whiteSpace=wrap;html=1;aspect=fixed;" parent="1" vertex="1">
                    <mxGeometry x="532" y="134" width="50" height="50" as="geometry"/>
                </mxCell>
                <mxCell id="CsA70eIJGZtUb_FbTeEb-11" value="" style="whiteSpace=wrap;html=1;aspect=fixed;" parent="1" vertex="1">
                    <mxGeometry x="220" y="186" width="50" height="50" as="geometry"/>
                </mxCell>
                <mxCell id="CsA70eIJGZtUb_FbTeEb-12" value="" style="whiteSpace=wrap;html=1;aspect=fixed;" parent="1" vertex="1">
                    <mxGeometry x="272" y="186" width="50" height="50" as="geometry"/>
                </mxCell>
                <mxCell id="CsA70eIJGZtUb_FbTeEb-13" value="" style="whiteSpace=wrap;html=1;aspect=fixed;" parent="1" vertex="1">
                    <mxGeometry x="324" y="186" width="50" height="50" as="geometry"/>
                </mxCell>
                <mxCell id="CsA70eIJGZtUb_FbTeEb-14" value="" style="whiteSpace=wrap;html=1;aspect=fixed;fillColor=#FFFFFF;" parent="1" vertex="1">
                    <mxGeometry x="376" y="186" width="50" height="50" as="geometry"/>
                </mxCell>
                <mxCell id="CsA70eIJGZtUb_FbTeEb-15" value="" style="whiteSpace=wrap;html=1;aspect=fixed;" parent="1" vertex="1">
                    <mxGeometry x="428" y="186" width="50" height="50" as="geometry"/>
                </mxCell>
                <mxCell id="CsA70eIJGZtUb_FbTeEb-16" value="" style="whiteSpace=wrap;html=1;aspect=fixed;" parent="1" vertex="1">
                    <mxGeometry x="480" y="186" width="50" height="50" as="geometry"/>
                </mxCell>
                <mxCell id="CsA70eIJGZtUb_FbTeEb-17" value="" style="whiteSpace=wrap;html=1;aspect=fixed;" parent="1" vertex="1">
                    <mxGeometry x="532" y="186" width="50" height="50" as="geometry"/>
                </mxCell>
                <mxCell id="CsA70eIJGZtUb_FbTeEb-18" value="" style="whiteSpace=wrap;html=1;aspect=fixed;" parent="1" vertex="1">
                    <mxGeometry x="220" y="238" width="50" height="50" as="geometry"/>
                </mxCell>
                <mxCell id="CsA70eIJGZtUb_FbTeEb-19" value="" style="whiteSpace=wrap;html=1;aspect=fixed;" parent="1" vertex="1">
                    <mxGeometry x="272" y="238" width="50" height="50" as="geometry"/>
                </mxCell>
                <mxCell id="CsA70eIJGZtUb_FbTeEb-20" value="" style="whiteSpace=wrap;html=1;aspect=fixed;" parent="1" vertex="1">
                    <mxGeometry x="324" y="238" width="50" height="50" as="geometry"/>
                </mxCell>
                <mxCell id="CsA70eIJGZtUb_FbTeEb-21" value="" style="whiteSpace=wrap;html=1;aspect=fixed;fillColor=#FFFFFF;" parent="1" vertex="1">
                    <mxGeometry x="376" y="238" width="50" height="50" as="geometry"/>
                </mxCell>
                <mxCell id="CsA70eIJGZtUb_FbTeEb-22" value="" style="whiteSpace=wrap;html=1;aspect=fixed;" parent="1" vertex="1">
                    <mxGeometry x="428" y="238" width="50" height="50" as="geometry"/>
                </mxCell>
                <mxCell id="CsA70eIJGZtUb_FbTeEb-23" value="" style="whiteSpace=wrap;html=1;aspect=fixed;" parent="1" vertex="1">
                    <mxGeometry x="480" y="238" width="50" height="50" as="geometry"/>
                </mxCell>
                <mxCell id="CsA70eIJGZtUb_FbTeEb-24" value="" style="whiteSpace=wrap;html=1;aspect=fixed;" parent="1" vertex="1">
                    <mxGeometry x="532" y="238" width="50" height="50" as="geometry"/>
                </mxCell>
                <mxCell id="cal2lbhvoZ3OgB7n_fgh-2" value="" style="shape=mxgraph.signs.food.fast_food;html=1;pointerEvents=1;fillColor=#60a917;strokeColor=#2D7600;verticalLabelPosition=bottom;verticalAlign=top;align=center;sketch=0;fontColor=#ffffff;" parent="1" vertex="1">
                    <mxGeometry x="488" y="41.5" width="34" height="27" as="geometry"/>
                </mxCell>
                <mxCell id="cal2lbhvoZ3OgB7n_fgh-3" value="" style="shape=mxgraph.signs.sports.cycling;html=1;pointerEvents=1;fillColor=#000000;strokeColor=none;verticalLabelPosition=bottom;verticalAlign=top;align=center;sketch=0;" parent="1" vertex="1">
                    <mxGeometry x="226" y="38.5" width="38" height="33" as="geometry"/>
                </mxCell>
                <mxCell id="cal2lbhvoZ3OgB7n_fgh-4" value="" style="whiteSpace=wrap;html=1;aspect=fixed;fillColor=#B3B3B3;" parent="1" vertex="1">
                    <mxGeometry x="324" y="30" width="50" height="50" as="geometry"/>
                </mxCell>
                <mxCell id="2" value="" style="shape=umlActor;verticalLabelPosition=bottom;verticalAlign=top;html=1;outlineConnect=0;strokeWidth=2;fillColor=#60a917;fontColor=#ffffff;strokeColor=#2D7600;" parent="1" vertex="1">
                    <mxGeometry x="494.5" y="248" width="21" height="30" as="geometry"/>
                </mxCell>
                <mxCell id="3" value="" style="shape=mxgraph.signs.food.fast_food;html=1;pointerEvents=1;fillColor=#a20025;strokeColor=#6F0000;verticalLabelPosition=bottom;verticalAlign=top;align=center;sketch=0;fontColor=#ffffff;" vertex="1" parent="1">
                    <mxGeometry x="332" y="145.5" width="34" height="27" as="geometry"/>
                </mxCell>
                <mxCell id="4" value="" style="shape=umlActor;verticalLabelPosition=bottom;verticalAlign=top;html=1;outlineConnect=0;strokeWidth=2;fillColor=#a20025;fontColor=#ffffff;strokeColor=#6F0000;" vertex="1" parent="1">
                    <mxGeometry x="234.5" y="248" width="21" height="30" as="geometry"/>
                </mxCell>
            </root>
        </mxGraphModel>
    </diagram>
</mxfile>